<svg width="44" height="50" viewBox="0 0 44 50" fill="none" xmlns="http://www.w3.org/2000/svg">
<path d="M21.675 6.625C9.725 6.625 0 16.35 0 28.3C0 40.25 9.725 50 21.675 50C33.625 50 43.35 40.275 43.35 28.325C43.35 16.375 33.625 6.625 21.675 6.625ZM23.55 27.5C23.55 28.525 22.7 29.375 21.675 29.375C20.65 29.375 19.8 28.525 19.8 27.5V15C19.8 13.975 20.65 13.125 21.675 13.125C22.7 13.125 23.55 13.975 23.55 15V27.5Z" fill="#3D4754"/>
<path d="M28.9 3.625H14.45C13.45 3.625 12.65 2.825 12.65 1.825C12.65 0.825 13.45 0 14.45 0H28.9C29.9 0 30.7 0.8 30.7 1.8C30.7 2.8 29.9 3.625 28.9 3.625Z" fill="#3D4754"/>
</svg>
