<svg width="21" height="21" viewBox="0 0 21 21" fill="none" xmlns="http://www.w3.org/2000/svg">
<path d="M1.49066 20.9999C1.09532 20.9999 0.716159 20.8419 0.436606 20.5606C0.157052 20.2793 1.00352e-08 19.8977 1.00352e-08 19.4999V1.50015C-2.9473e-05 1.24445 0.0649066 0.992976 0.18864 0.769626C0.312374 0.546277 0.490796 0.358465 0.706963 0.224029C0.923129 0.0895932 1.16986 0.0129958 1.42373 0.00151329C1.67759 -0.00996926 1.93016 0.0440441 2.15744 0.158423L20.0454 9.15831C20.2931 9.28286 20.5014 9.47436 20.6469 9.71135C20.7925 9.94833 20.8696 10.2214 20.8696 10.5C20.8696 10.7786 20.7925 11.0517 20.6469 11.2887C20.5014 11.5257 20.2931 11.7172 20.0454 11.8418L2.15744 20.8417C1.95038 20.9457 1.72211 20.9999 1.49066 20.9999ZM2.98133 3.92697V17.0731L16.0458 10.5L2.98133 3.92697Z" fill="black"/>
</svg>
