<svg width="27" height="32" viewBox="0 0 27 32" fill="none" xmlns="http://www.w3.org/2000/svg">
<path d="M23.8846 17.0427V14.2151H21.8077V17.4955C21.8078 17.7855 21.9172 18.0636 22.112 18.2686L24.9231 21.2287V22.9628H2.07693V21.2287L4.88804 18.2686C5.08281 18.0636 5.19225 17.7855 5.19231 17.4955V13.1216C5.18964 11.5852 5.57203 10.0752 6.30088 8.74413C7.02972 7.41307 8.07921 6.30809 9.34337 5.54075C10.6075 4.77341 12.0416 4.3709 13.5008 4.37385C14.9599 4.3768 16.3925 4.78511 17.6539 5.55755V3.11278C16.6653 2.65194 15.6139 2.35823 14.5385 2.24249V0H12.4616V2.24249C9.9014 2.51676 7.52877 3.78086 5.80244 5.79034C4.07612 7.79983 3.11872 10.412 3.11539 13.1216V17.0427L0.30427 20.0028C0.109507 20.2078 5.88158e-05 20.4859 0 20.7759V24.0563C0 24.3463 0.109409 24.6244 0.304159 24.8295C0.498908 25.0346 0.763045 25.1498 1.03846 25.1498H8.3077V26.2432C8.3077 27.6933 8.85475 29.0839 9.82849 30.1092C10.8022 31.1346 12.1229 31.7106 13.5 31.7106C14.8771 31.7106 16.1978 31.1346 17.1715 30.1092C18.1453 29.0839 18.6923 27.6933 18.6923 26.2432V25.1498H25.9616C26.237 25.1498 26.5011 25.0346 26.6959 24.8295C26.8906 24.6244 27 24.3463 27 24.0563V20.7759C27 20.4859 26.8905 20.2078 26.6958 20.0028L23.8846 17.0427ZM16.6154 26.2432C16.6154 27.1133 16.2872 27.9476 15.7029 28.5628C15.1187 29.178 14.3263 29.5237 13.5 29.5237C12.6738 29.5237 11.8813 29.178 11.2971 28.5628C10.7129 27.9476 10.3846 27.1133 10.3846 26.2432V25.1498H16.6154V26.2432Z" fill="black"/>
<path d="M18.2036 12.0612C20.4977 12.0612 22.3575 10.103 22.3575 7.68734C22.3575 5.27172 20.4977 3.31347 18.2036 3.31347C15.9095 3.31347 14.0498 5.27172 14.0498 7.68734C14.0498 10.103 15.9095 12.0612 18.2036 12.0612Z" fill="black"/>
</svg>
