<svg width="115" height="95" viewBox="0 0 115 95" fill="none" xmlns="http://www.w3.org/2000/svg">
<path d="M111 49.1106C111 61.8133 105.727 73.2635 97.2726 81.4934C88.9999 89.6338 77.5454 94.5539 64.9091 94.5539C52.3636 94.5539 40.9091 89.5444 32.5455 81.4934C24.091 73.2635 18.8183 61.8133 18.8183 49.1106C18.8183 23.9737 39.4546 3.66737 64.9091 3.66737C90.3635 3.66737 111 24.0632 111 49.1106Z" fill="#EAEEF9"/>
<path d="M106.999 19.3223C109.058 19.3223 110.727 17.6803 110.727 15.6547C110.727 13.6291 109.058 11.987 106.999 11.987C104.941 11.987 103.272 13.6291 103.272 15.6547C103.272 17.6803 104.941 19.3223 106.999 19.3223Z" fill="#EAEEF9"/>
<path d="M112.455 5.00949C113.86 5.00949 115 3.88808 115 2.50475C115 1.12141 113.86 0 112.455 0C111.049 0 109.909 1.12141 109.909 2.50475C109.909 3.88808 111.049 5.00949 112.455 5.00949Z" fill="#EAEEF9"/>
<path d="M20.2727 19.2326C21.6785 19.2326 22.8181 18.1112 22.8181 16.7279C22.8181 15.3445 21.6785 14.2231 20.2727 14.2231C18.8668 14.2231 17.7272 15.3445 17.7272 16.7279C17.7272 18.1112 18.8668 19.2326 20.2727 19.2326Z" fill="#EAEEF9"/>
<path d="M4.72726 67.5383C7.33805 67.5383 9.45452 65.4557 9.45452 62.8867C9.45452 60.3176 7.33805 58.235 4.72726 58.235C2.11647 58.235 0 60.3176 0 62.8867C0 65.4557 2.11647 67.5383 4.72726 67.5383Z" fill="#EAEEF9"/>
<path d="M97.2722 25.316V81.4938C88.9995 89.6343 77.545 94.5543 64.9087 94.5543C52.3633 94.5543 40.9088 89.5448 32.5452 81.4938V25.316H97.2722Z" fill="white"/>
<path opacity="0.5" d="M66.052 53.9895L53.3885 41.5285L49.0816 45.7665L61.7451 58.2275L66.052 53.9895Z" fill="#979FAF"/>
<path opacity="0.5" d="M76.4395 35.3339L57.5407 53.9305L61.8475 58.1685L80.7463 39.5719L76.4395 35.3339Z" fill="#979FAF"/>
<path d="M81.4545 65.839H48.3637V69.954H81.4545V65.839Z" fill="#D5DAE5"/>
<path d="M81.4545 74.8738H48.3637V78.9887H81.4545V74.8738Z" fill="#D5DAE5"/>
<path d="M73.363 83.9983H56.454V88.1132H73.363V83.9983Z" fill="#D5DAE5"/>
</svg>
