<svg width="204" height="203" viewBox="0 0 204 203" fill="none" xmlns="http://www.w3.org/2000/svg">
<path d="M101.938 0C81.7762 0 62.0676 5.95287 45.3041 17.1058C28.5406 28.2588 15.475 44.1109 7.75958 62.6576C0.044168 81.2043 -1.97453 101.613 1.95875 121.302C5.89203 140.991 15.6006 159.076 29.8568 173.271C44.1131 187.466 62.2766 197.133 82.0505 201.05C101.824 204.966 122.321 202.956 140.947 195.274C159.574 187.591 175.494 174.582 186.695 157.89C197.897 141.199 203.875 121.575 203.875 101.5C203.845 74.5898 193.095 48.7905 173.985 29.7621C154.874 10.7338 128.964 0.0303187 101.938 0ZM58.25 176.73V166.75C58.2564 160.983 60.5598 155.455 64.655 151.377C68.7501 147.3 74.3024 145.006 80.0938 145H123.781C129.573 145.006 135.125 147.3 139.22 151.377C143.315 155.455 145.619 160.983 145.625 166.75V176.73C132.367 184.438 117.29 188.5 101.938 188.5C86.5849 188.5 71.508 184.438 58.25 176.73ZM160.133 166.212C159.988 156.702 156.097 147.629 149.297 140.949C142.497 134.269 133.334 130.516 123.781 130.5H80.0938C70.5415 130.516 61.378 134.269 54.5783 140.949C47.7785 147.629 43.8869 156.702 43.7422 166.212C30.5381 154.472 21.2266 139.016 17.0406 121.89C12.8546 104.764 13.9917 86.7763 20.3012 70.308C26.6107 53.8398 37.795 39.6681 52.3731 29.6697C66.9513 19.6712 84.2357 14.3175 101.938 14.3175C119.639 14.3175 136.924 19.6712 151.502 29.6697C166.08 39.6681 177.264 53.8398 183.574 70.308C189.883 86.7763 191.02 104.764 186.834 121.89C182.649 139.016 173.337 154.472 160.133 166.212Z" fill="#594B4B"/>
</svg>
