<svg width="25" height="25" viewBox="0 0 25 25" fill="none" xmlns="http://www.w3.org/2000/svg">
<path opacity="0.4" d="M17.7375 0H7.2625C2.7125 0 0 2.7125 0 7.2625V17.725C0 22.2875 2.7125 25 7.2625 25H17.725C22.275 25 24.9875 22.2875 24.9875 17.7375V7.2625C25 2.7125 22.2875 0 17.7375 0Z" fill="white"/>
<path d="M14.075 17.85C13.8375 17.85 13.6 17.7625 13.4125 17.575L9.00002 13.1625C8.63752 12.8 8.63752 12.2 9.00002 11.8375L13.4125 7.42495C13.775 7.06245 14.375 7.06245 14.7375 7.42495C15.1 7.78745 15.1 8.38745 14.7375 8.74995L10.9875 12.5L14.7375 16.25C15.1 16.6125 15.1 17.2125 14.7375 17.575C14.5625 17.7625 14.325 17.85 14.075 17.85Z" fill="white"/>
</svg>
