<svg width="28" height="28" viewBox="0 0 28 28" fill="none" xmlns="http://www.w3.org/2000/svg">
<rect width="28" height="28" rx="4" fill="white"/>
<path d="M14 10.2789C15.1392 10.2789 15.9076 10.771 16.3458 11.1822L18.0579 9.51044C17.0063 8.53301 15.638 7.93311 14 7.93311C11.6273 7.93311 9.57806 9.29472 8.58044 11.2765L10.542 12.7999C11.0341 11.3371 12.3957 10.2789 14 10.2789Z" fill="#EA4335"/>
<path d="M19.824 14.1348C19.824 13.636 19.7836 13.272 19.6959 12.8945H14V15.1459H17.3434C17.276 15.7054 16.912 16.548 16.1031 17.1142L18.0175 18.5972C19.1634 17.5389 19.824 15.9818 19.824 14.1348Z" fill="#4285F4"/>
<path d="M10.5488 15.2C10.4207 14.8225 10.3465 14.418 10.3465 14.0001C10.3465 13.5822 10.4207 13.1778 10.542 12.8003L8.58044 11.2769C8.16931 12.0992 7.93335 13.0227 7.93335 14.0001C7.93335 14.9775 8.16931 15.9011 8.58044 16.7234L10.5488 15.2Z" fill="#FBBC05"/>
<path d="M14 20.0665C15.638 20.0665 17.0131 19.5273 18.0174 18.597L16.1031 17.1141C15.5908 17.4713 14.9032 17.7208 14 17.7208C12.3957 17.7208 11.0341 16.6624 10.5487 15.1997L8.58716 16.7231C9.58477 18.7049 11.6272 20.0665 14 20.0665Z" fill="#34A853"/>
</svg>
