<svg width="29" height="34" viewBox="0 0 29 34" fill="none" xmlns="http://www.w3.org/2000/svg">
<path d="M28.2801 11.1122C26.5833 3.44976 20.0708 0 14.3501 0C14.3501 0 14.3501 0 14.334 0C8.62946 0 2.10078 3.43317 0.403967 11.0956C-1.48676 19.6537 3.61983 26.9015 8.24162 31.4624C9.95459 33.1541 12.1524 34 14.3501 34C16.5479 34 18.7457 33.1541 20.4425 31.4624C25.0643 26.9015 30.1709 19.6702 28.2801 11.1122ZM14.3501 19.4215C11.5383 19.4215 9.2597 17.0829 9.2597 14.1971C9.2597 11.3112 11.5383 8.97268 14.3501 8.97268C17.162 8.97268 19.4406 11.3112 19.4406 14.1971C19.4406 17.0829 17.162 19.4215 14.3501 19.4215Z" fill="#3D4754"/>
<path d="M28.2801 11.1122C26.5833 3.44976 20.0708 0 14.3501 0C14.3501 0 14.3501 0 14.334 0C8.62946 0 2.10078 3.43317 0.403967 11.0956C-1.48676 19.6537 3.61983 26.9015 8.24162 31.4624C9.95459 33.1541 12.1524 34 14.3501 34C16.5479 34 18.7457 33.1541 20.4425 31.4624C25.0643 26.9015 30.1709 19.6702 28.2801 11.1122ZM14.3501 19.4215C11.5383 19.4215 9.2597 17.0829 9.2597 14.1971C9.2597 11.3112 11.5383 8.97268 14.3501 8.97268C17.162 8.97268 19.4406 11.3112 19.4406 14.1971C19.4406 17.0829 17.162 19.4215 14.3501 19.4215Z" fill="#3D4754"/>
</svg>
