<svg width="33" height="31" viewBox="0 0 33 31" fill="none" xmlns="http://www.w3.org/2000/svg">
<path d="M17.1735 0.248553C16.9783 0.087483 16.7377 0 16.49 0C16.2424 0 16.0018 0.087483 15.8066 0.248553L0 13.2791L1.36697 15.1067L3.3 13.5134V27.9085C3.30119 28.5249 3.53336 29.1158 3.94568 29.5516C4.358 29.9875 4.91689 30.233 5.5 30.2342H27.5C28.0831 30.2331 28.6421 29.9877 29.0544 29.5518C29.4668 29.1159 29.6989 28.525 29.7 27.9085V13.524L31.633 15.1171L33 13.2893L17.1735 0.248553ZM18.7 27.9085H14.3V18.6057H18.7V27.9085ZM20.9 27.9085V18.6057C20.8993 17.989 20.6673 17.3979 20.2549 16.9619C19.8425 16.5259 19.2833 16.2806 18.7 16.2799H14.3C13.7167 16.2806 13.1575 16.5258 12.745 16.9618C12.3326 17.3978 12.1006 17.989 12.1 18.6057V27.9085H5.5V11.7L16.5 2.64137L27.5 11.7122V27.9085H20.9Z" fill="black"/>
</svg>
