<svg width="73" height="73" viewBox="0 0 73 73" fill="none" xmlns="http://www.w3.org/2000/svg">
<path d="M36.5 0C29.281 0 22.2241 2.1315 16.2217 6.12496C10.2193 10.1184 5.54101 15.7945 2.77841 22.4354C0.0158149 29.0762 -0.707007 36.3837 0.701354 43.4336C2.10971 50.4835 5.58601 56.9593 10.6906 62.042C15.7952 67.1247 22.2989 70.586 29.3792 71.9884C36.4595 73.3907 43.7985 72.671 50.468 69.9202C57.1375 67.1695 62.838 62.5113 66.8487 56.5346C70.8593 50.558 73 43.5314 73 36.3433C73 26.7045 69.1545 17.4604 62.3094 10.6447C55.4643 3.82902 46.1804 0 36.5 0ZM36.5 58.1494C32.1686 58.1494 27.9345 56.8705 24.333 54.4744C20.7316 52.0783 17.9246 48.6727 16.2671 44.6881C14.6095 40.7036 14.1758 36.3192 15.0208 32.0892C15.8658 27.8593 17.9516 23.9738 21.0144 20.9242C24.0771 17.8745 27.9794 15.7977 32.2275 14.9563C36.4757 14.1149 40.8791 14.5468 44.8808 16.1972C48.8825 17.8477 52.3028 20.6426 54.7092 24.2286C57.1156 27.8146 58.4 32.0305 58.4 36.3433C58.3935 42.1246 56.084 47.6673 51.9784 51.7553C47.8728 55.8433 42.3062 58.1428 36.5 58.1494Z" fill="#594B4B"/>
</svg>
