<svg width="31" height="31" viewBox="0 0 31 31" fill="none" xmlns="http://www.w3.org/2000/svg">
<path d="M15.5 0C12.4344 0 9.43763 0.909059 6.88867 2.61222C4.33971 4.31538 2.35303 6.73615 1.17987 9.56841C0.00671589 12.4007 -0.300236 15.5172 0.297835 18.5239C0.895906 21.5306 2.37214 24.2924 4.53985 26.4602C6.70756 28.6279 9.4694 30.1041 12.4761 30.7022C15.4828 31.3002 18.5993 30.9933 21.4316 29.8201C24.2639 28.647 26.6846 26.6603 28.3878 24.1113C30.0909 21.5624 31 18.5656 31 15.5C30.9954 11.3906 29.3609 7.45077 26.455 4.54496C23.5492 1.63915 19.6094 0.00462996 15.5 0ZM24.3488 25.3821C24.3268 23.9298 23.7351 22.5443 22.7012 21.5242C21.6672 20.5041 20.2739 19.931 18.8214 19.9286H12.1786C10.7261 19.931 9.33277 20.5041 8.29884 21.5242C7.26491 22.5443 6.67318 23.9298 6.65117 25.3821C4.64343 23.5894 3.22758 21.2291 2.59109 18.6138C1.9546 15.9985 2.12749 13.2516 3.08687 10.7367C4.04626 8.22184 5.74687 6.0577 7.96354 4.53083C10.1802 3.00397 12.8084 2.18641 15.5 2.18641C18.1916 2.18641 20.8198 3.00397 23.0365 4.53083C25.2531 6.0577 26.9538 8.22184 27.9131 10.7367C28.8725 13.2516 29.0454 15.9985 28.4089 18.6138C27.7724 21.2291 26.3566 23.5894 24.3488 25.3821Z" fill="black"/>
</svg>
