<svg width="36" height="41" viewBox="0 0 36 41" fill="none" xmlns="http://www.w3.org/2000/svg">
<path d="M33 40.4538H3C2.20463 40.4529 1.4421 40.1482 0.879688 39.6064C0.317277 39.0647 0.0009131 38.3303 0 37.5642V2.88955C0.0009131 2.12347 0.317277 1.38901 0.879688 0.847302C1.4421 0.305596 2.20463 0.000879484 3 0H33C33.7954 0.000879484 34.5579 0.305596 35.1203 0.847302C35.6827 1.38901 35.9991 2.12347 36 2.88955V37.5642C35.9991 38.3303 35.6827 39.0647 35.1203 39.6064C34.5579 40.1482 33.7954 40.4529 33 40.4538ZM3 2.88955V37.5642H33V2.88955H3Z" fill="black"/>
<path d="M27 10.1133H9V7.22373H27V10.1133Z" fill="black"/>
</svg>
