<svg width="32" height="43" viewBox="0 0 32 43" fill="none" xmlns="http://www.w3.org/2000/svg">
<path d="M12.8383 0V5.36829H8.0479C3.70459 5.36829 0.0638722 8.42821 0.0638722 12.0787V14.7628C0.0638722 18.4132 2.87425 21.4195 7.02595 22.3321L23.3772 25.8752C24.2715 26.0899 25.5489 27.432 25.5489 28.2372V30.9213C25.5489 31.6729 24.8463 32.2634 23.9521 32.2634H7.98403C7.21756 32.2634 6.64271 32.0487 6.38723 31.9413V26.8951H0V32.2634C0 34.0886 1.27745 35.6454 2.81038 36.4507C4.27944 37.3096 6.13174 37.6317 7.98403 37.6317H12.7745V43H19.1617V37.6317H23.9521C28.3593 37.6317 31.9361 34.6255 31.9361 30.9213V28.2372C31.9361 24.5868 29.1257 21.5805 24.9741 20.6679L8.62275 17.1248C7.72854 16.9101 6.4511 15.568 6.4511 14.7628V12.0787C6.4511 11.3271 7.15369 10.7366 8.0479 10.7366H24.016C24.7186 10.7366 25.3573 10.9513 25.6128 11.0587V16.1049H32V10.7366C32 8.91136 30.7226 7.35456 29.1896 6.54931C27.7206 5.69039 25.8683 5.36829 24.016 5.36829H19.2255V0L12.8383 0Z" fill="black"/>
</svg>
