<svg width="37" height="41" viewBox="0 0 37 41" fill="none" xmlns="http://www.w3.org/2000/svg">
<path d="M1.5 33.2671C0.68 33.2671 0 32.6207 0 31.8413V10.9306C0 2.54731 2.68 0 11.5 0H25.5C34.32 0 37 2.54731 37 10.9306V29.9404C37 30.2445 37 30.5297 36.98 30.8338C36.92 31.6132 36.18 32.2215 35.38 32.1645C34.56 32.1075 33.92 31.4231 33.98 30.6437C34 30.4156 34 30.1685 34 29.9404V10.9306C34 4.14413 32.66 2.85146 25.5 2.85146H11.5C4.34 2.85146 3 4.14413 3 10.9306V31.8413C3 32.6207 2.32 33.2671 1.5 33.2671Z" fill="#292D32"/>
<path d="M28.5 40.8712H8.5C3.82 40.8712 0 37.2403 0 32.792V31.5564C0 27.7735 3.24 24.7129 7.2 24.7129H35.5C36.32 24.7129 37 25.3592 37 26.1386V32.792C37 37.2403 33.18 40.8712 28.5 40.8712ZM7.2 27.5644C4.88 27.5644 3 29.3513 3 31.5564V32.792C3 35.6815 5.46 38.0197 8.5 38.0197H28.5C31.54 38.0197 34 35.6815 34 32.792V27.5644H7.2Z" fill="#292D32"/>
<path d="M26.5 12.3563H10.5C9.68 12.3563 9 11.71 9 10.9306C9 10.1512 9.68 9.50488 10.5 9.50488H26.5C27.32 9.50488 28 10.1512 28 10.9306C28 11.71 27.32 12.3563 26.5 12.3563Z" fill="#292D32"/>
<path d="M20.5 19.0097H10.5C9.68 19.0097 9 18.3633 9 17.5839C9 16.8045 9.68 16.1582 10.5 16.1582H20.5C21.32 16.1582 22 16.8045 22 17.5839C22 18.3633 21.32 19.0097 20.5 19.0097Z" fill="#292D32"/>
</svg>
