<svg width="22" height="31" viewBox="0 0 22 31" fill="none" xmlns="http://www.w3.org/2000/svg">
<path d="M19.8 13.2H17.6V6.6C17.6 4.84957 16.9046 3.17084 15.6669 1.9331C14.4292 0.695355 12.7504 0 11 0C9.24957 0 7.57084 0.695355 6.3331 1.9331C5.09536 3.17084 4.4 4.84957 4.4 6.6V13.2H2.2C1.61652 13.2 1.05695 13.4318 0.644365 13.8444C0.231785 14.2569 0 14.8165 0 15.4V28.6C0 29.1835 0.231785 29.7431 0.644365 30.1556C1.05695 30.5682 1.61652 30.8 2.2 30.8H19.8C20.3835 30.8 20.9431 30.5682 21.3556 30.1556C21.7682 29.7431 22 29.1835 22 28.6V15.4C22 14.8165 21.7682 14.2569 21.3556 13.8444C20.9431 13.4318 20.3835 13.2 19.8 13.2ZM6.6 6.6C6.6 5.43305 7.06357 4.31389 7.88873 3.48873C8.71389 2.66357 9.83305 2.2 11 2.2C12.167 2.2 13.2861 2.66357 14.1113 3.48873C14.9364 4.31389 15.4 5.43305 15.4 6.6V13.2H6.6V6.6ZM19.8 28.6H2.2V15.4H19.8V28.6Z" fill="#261A07"/>
</svg>
