<svg width="81" height="81" viewBox="0 0 81 81" fill="none" xmlns="http://www.w3.org/2000/svg">
<g filter="url(#filter0_f_2747_1701)">
<path d="M40.5 4.00928C33.2828 4.00928 26.2277 6.14024 20.2269 10.1327C14.226 14.1251 9.54888 19.7997 6.78699 26.4389C4.02509 33.0781 3.30245 40.3837 4.71046 47.4318C6.11846 54.4799 9.59387 60.9541 14.6972 66.0355C19.8005 71.1169 26.3025 74.5774 33.381 75.9793C40.4595 77.3813 47.7966 76.6618 54.4644 73.9117C61.1322 71.1617 66.8313 66.5046 70.8409 60.5295C74.8506 54.5544 76.9907 47.5296 76.9907 40.3434C76.9907 30.707 73.1462 21.4653 66.3029 14.6513C59.4595 7.83733 50.178 4.00928 40.5 4.00928ZM40.5 62.1438C36.1697 62.1438 31.9366 60.8653 28.3361 58.4698C24.7356 56.0743 21.9293 52.6696 20.2722 48.6861C18.6151 44.7025 18.1815 40.3192 19.0263 36.0903C19.8711 31.8615 21.9563 27.977 25.0183 24.9281C28.0803 21.8793 31.9815 19.803 36.2286 18.9618C40.4757 18.1206 44.878 18.5524 48.8787 20.2024C52.8793 21.8524 56.2988 24.6466 58.7046 28.2317C61.1104 31.8168 62.3945 36.0317 62.3945 40.3434C62.3879 46.1232 60.0791 51.6645 55.9745 55.7514C51.8699 59.8384 46.3048 62.1373 40.5 62.1438Z" fill="#594B4B"/>
</g>
<defs>
<filter id="filter0_f_2747_1701" x="0" y="0" width="81" height="80.6868" filterUnits="userSpaceOnUse" color-interpolation-filters="sRGB">
<feFlood flood-opacity="0" result="BackgroundImageFix"/>
<feBlend mode="normal" in="SourceGraphic" in2="BackgroundImageFix" result="shape"/>
<feGaussianBlur stdDeviation="2" result="effect1_foregroundBlur_2747_1701"/>
</filter>
</defs>
</svg>
