<svg width="40" height="39" viewBox="0 0 40 39" fill="none" xmlns="http://www.w3.org/2000/svg">
<path d="M19.8193 8.35732C18.4193 8.35732 17.0508 8.76577 15.8868 9.53101C14.7227 10.2963 13.8155 11.3839 13.2798 12.6565C12.744 13.929 12.6038 15.3293 12.877 16.6802C13.1501 18.0312 13.8242 19.2721 14.8141 20.2461C15.8041 21.22 17.0653 21.8833 18.4384 22.152C19.8114 22.4208 21.2346 22.2828 22.528 21.7557C23.8214 21.2286 24.9269 20.336 25.7047 19.1907C26.4824 18.0455 26.8976 16.699 26.8976 15.3216C26.8976 13.4745 26.1518 11.7032 24.8244 10.3971C23.4969 9.09105 21.6965 8.35732 19.8193 8.35732ZM19.8193 19.5001C18.9793 19.5001 18.1582 19.2551 17.4598 18.7959C16.7614 18.3368 16.217 17.6842 15.8956 16.9207C15.5741 16.1571 15.49 15.317 15.6539 14.5064C15.8178 13.6958 16.2222 12.9513 16.8162 12.3669C17.4101 11.7825 18.1669 11.3845 18.9907 11.2233C19.8146 11.0621 20.6685 11.1448 21.4445 11.4611C22.2206 11.7774 22.8838 12.3129 23.3505 13.0001C23.8172 13.6873 24.0662 14.4951 24.0662 15.3216C24.065 16.4294 23.6171 17.4915 22.8209 18.2749C22.0247 19.0583 20.9452 19.4989 19.8193 19.5001Z" fill="black"/>
<path d="M19.8193 0C15.8994 0 12.0675 1.14365 8.80828 3.28633C5.54902 5.42902 3.00873 8.47449 1.50866 12.0376C0.00858735 15.6008 -0.3839 19.5216 0.38083 23.3042C1.14556 27.0868 3.03316 30.5614 5.80494 33.2885C8.57671 36.0156 12.1082 37.8728 15.9527 38.6252C19.7973 39.3776 23.7823 38.9915 27.4038 37.5156C31.0253 36.0396 34.1206 33.5403 36.2984 30.3335C38.4762 27.1268 39.6385 23.3567 39.6385 19.5C39.6326 14.33 37.5426 9.37352 33.8271 5.71784C30.1115 2.06215 25.0738 0.00582477 19.8193 0ZM11.3253 33.9529V32.0356C11.3265 30.9278 11.7744 29.8657 12.5706 29.0823C13.3668 28.2989 14.4463 27.8583 15.5723 27.8571H24.0663C25.1922 27.8583 26.2718 28.2989 27.068 29.0823C27.8642 29.8657 28.312 30.9278 28.3132 32.0356V33.9529C25.7356 35.4338 22.8042 36.2142 19.8193 36.2142C16.8343 36.2142 13.903 35.4338 11.3253 33.9529ZM31.1339 31.9323C31.1058 30.1052 30.3492 28.3621 29.0271 27.0788C27.7051 25.7954 25.9235 25.0745 24.0663 25.0714H15.5723C13.7151 25.0745 11.9335 25.7954 10.6114 27.0788C9.28937 28.3621 8.53274 30.1052 8.50459 31.9323C5.93738 29.6769 4.12699 26.7075 3.31313 23.4173C2.49927 20.1271 2.72034 16.6713 3.94707 13.5074C5.17379 10.3436 7.34831 7.62095 10.1827 5.70007C13.017 3.77918 16.3776 2.75064 19.8193 2.75064C23.261 2.75064 26.6215 3.77918 29.4559 5.70007C32.2902 7.62095 34.4647 10.3436 35.6915 13.5074C36.9182 16.6713 37.1393 20.1271 36.3254 23.4173C35.5116 26.7075 33.7012 29.6769 31.1339 31.9323Z" fill="black"/>
</svg>
