<svg width="187" height="193" viewBox="0 0 187 193" fill="none" xmlns="http://www.w3.org/2000/svg">
<path d="M98.6377 156.311C137.924 156.311 169.775 124.461 169.775 85.0339C169.775 45.6068 137.784 13.7565 98.6377 13.7565C59.351 13.7565 27.5007 45.6068 27.5007 85.0339C27.5007 124.461 59.351 156.311 98.6377 156.311Z" fill="#EAEEF9"/>
<path d="M174.195 131.023C177.372 131.023 179.947 128.448 179.947 125.27C179.947 122.093 177.372 119.518 174.195 119.518C171.017 119.518 168.442 122.093 168.442 125.27C168.442 128.448 171.017 131.023 174.195 131.023Z" fill="#EAEEF9"/>
<path d="M182.613 108.573C184.783 108.573 186.542 106.814 186.542 104.644C186.542 102.475 184.783 100.716 182.613 100.716C180.443 100.716 178.685 102.475 178.685 104.644C178.685 106.814 180.443 108.573 182.613 108.573Z" fill="#EAEEF9"/>
<path d="M31.2891 38.1702C33.4588 38.1702 35.2177 36.4113 35.2177 34.2416C35.2177 32.0718 33.4588 30.3129 31.2891 30.3129C29.1193 30.3129 27.3604 32.0718 27.3604 34.2416C27.3604 36.4113 29.1193 38.1702 31.2891 38.1702Z" fill="#EAEEF9"/>
<path d="M7.2961 113.938C11.3256 113.938 14.5922 110.671 14.5922 106.642C14.5922 102.612 11.3256 99.3455 7.2961 99.3455C3.26658 99.3455 0 102.612 0 106.642C0 110.671 3.26658 113.938 7.2961 113.938Z" fill="#EAEEF9"/>
<path d="M151.692 86.7168L155.483 85.5739C155.758 85.4942 155.758 85.0955 155.483 85.0158L151.692 83.8729C151.594 83.8464 151.523 83.7755 151.497 83.678L150.354 79.8951C150.274 79.6205 149.875 79.6205 149.796 79.8951L148.653 83.678C148.626 83.7755 148.555 83.8464 148.458 83.8729L144.675 85.0158C144.4 85.0955 144.4 85.4942 144.675 85.5739L148.467 86.7168C148.564 86.7434 148.635 86.8142 148.662 86.9117L149.805 90.7035C149.884 90.9781 150.283 90.9781 150.363 90.7035L151.506 86.9117C151.523 86.8142 151.594 86.7434 151.692 86.7168Z" fill="#ADB6C8"/>
<path d="M129.242 46.0281L133.034 44.8853C133.309 44.8056 133.309 44.407 133.034 44.3272L129.242 43.1844C129.145 43.1579 129.074 43.087 129.047 42.9895L127.904 39.2068C127.825 38.9322 127.426 38.9322 127.346 39.2068L126.203 42.9895C126.177 43.087 126.106 43.1579 126.008 43.1844L122.225 44.3272C121.951 44.407 121.951 44.8056 122.225 44.8853L126.017 46.0281C126.115 46.0547 126.186 46.1256 126.212 46.223L127.355 50.0146C127.435 50.2893 127.833 50.2893 127.913 50.0146L129.056 46.223C129.074 46.1256 129.145 46.0547 129.242 46.0281Z" fill="#ADB6C8"/>
<path d="M72.2154 50.7621L75.5332 49.7621C75.7735 49.6924 75.7735 49.3436 75.5332 49.2738L72.2154 48.2739C72.1301 48.2506 72.0681 48.1886 72.0448 48.1033L71.0448 44.7934C70.9751 44.5531 70.6262 44.5531 70.5565 44.7934L69.5565 48.1033C69.5332 48.1886 69.4712 48.2506 69.3859 48.2739L66.0759 49.2738C65.8355 49.3436 65.8355 49.6924 66.0759 49.7621L69.3937 50.7621C69.4789 50.7853 69.541 50.8473 69.5642 50.9326L70.5642 54.2502C70.634 54.4905 70.9828 54.4905 71.0526 54.2502L72.0526 50.9326C72.0681 50.8473 72.1301 50.7853 72.2154 50.7621Z" fill="#ADB6C8"/>
<path d="M48.3627 111.697L51.6805 110.554C51.9208 110.475 51.9208 110.076 51.6805 109.996L48.3627 108.853C48.2774 108.827 48.2154 108.756 48.1922 108.658L47.1922 104.875C47.1224 104.601 46.7736 104.601 46.7038 104.875L45.7038 108.658C45.6805 108.756 45.6185 108.827 45.5333 108.853L42.2232 109.996C41.9829 110.076 41.9829 110.475 42.2232 110.554L45.541 111.697C45.6263 111.724 45.6883 111.795 45.7116 111.892L46.7116 115.684C46.7813 115.958 47.1302 115.958 47.1999 115.684L48.1999 111.892C48.2154 111.795 48.2774 111.724 48.3627 111.697Z" fill="#ADB6C8"/>
<path d="M43.0507 68.4855L45.4206 67.7713C45.5922 67.7214 45.5922 67.4723 45.4206 67.4225L43.0507 66.7082C42.9898 66.6916 42.9455 66.6473 42.9289 66.5864L42.2146 64.2223C42.1648 64.0506 41.9156 64.0506 41.8658 64.2223L41.1515 66.5864C41.1349 66.6473 41.0906 66.6916 41.0297 66.7082L38.6653 67.4225C38.4937 67.4723 38.4937 67.7214 38.6653 67.7713L41.0352 68.4855C41.0961 68.5021 41.1404 68.5464 41.157 68.6073L41.8713 70.977C41.9211 71.1486 42.1703 71.1486 42.2201 70.977L42.9344 68.6073C42.9455 68.5464 42.9898 68.5021 43.0507 68.4855Z" fill="#ADB6C8"/>
<path d="M68.3058 91.9255L70.6756 91.2113C70.8473 91.1614 70.8473 90.9123 70.6756 90.8625L68.3058 90.1482C68.2448 90.1316 68.2006 90.0873 68.1839 90.0264L67.4697 87.6623C67.4198 87.4906 67.1707 87.4906 67.1208 87.6623L66.4065 90.0264C66.3899 90.0873 66.3456 90.1316 66.2847 90.1482L63.9204 90.8625C63.7487 90.9123 63.7487 91.1614 63.9204 91.2113L66.2903 91.9255C66.3512 91.9421 66.3955 91.9864 66.4121 92.0473L67.1264 94.417C67.1762 94.5886 67.4254 94.5886 67.4752 94.417L68.1895 92.0473C68.2006 91.9864 68.2448 91.9421 68.3058 91.9255Z" fill="#ADB6C8"/>
<path d="M88.4008 25.1496L90.7707 24.4354C90.9423 24.3856 90.9423 24.1364 90.7707 24.0866L88.4008 23.3724C88.3399 23.3558 88.2956 23.3115 88.279 23.2506L87.5647 20.8864C87.5148 20.7148 87.2657 20.7148 87.2158 20.8864L86.5016 23.2506C86.4849 23.3115 86.4406 23.3558 86.3797 23.3724L84.0154 24.0866C83.8438 24.1364 83.8438 24.3856 84.0154 24.4354L86.3853 25.1496C86.4462 25.1663 86.4905 25.2105 86.5071 25.2715L87.2214 27.6411C87.2712 27.8128 87.5204 27.8128 87.5702 27.6411L88.2845 25.2715C88.2956 25.2105 88.3399 25.1663 88.4008 25.1496Z" fill="#ADB6C8"/>
<path d="M144.557 126.666L146.927 125.952C147.098 125.902 147.098 125.653 146.927 125.603L144.557 124.889C144.496 124.872 144.451 124.828 144.435 124.767L143.721 122.403C143.671 122.231 143.422 122.231 143.372 122.403L142.657 124.767C142.641 124.828 142.597 124.872 142.536 124.889L140.171 125.603C140 125.653 140 125.902 140.171 125.952L142.541 126.666C142.602 126.683 142.646 126.727 142.663 126.788L143.377 129.157C143.427 129.329 143.676 129.329 143.726 129.157L144.44 126.788C144.451 126.727 144.496 126.683 144.557 126.666Z" fill="#ADB6C8"/>
<path d="M77.6832 95.9086C71.7162 100.256 63.8739 106.564 63.8739 112.105C63.8739 115.744 63.8739 121.11 63.8739 124.366C63.8739 125.311 65.1981 125.855 65.9459 125.278C68.6177 123.218 73.8899 120.325 81.8601 121.055C93.9645 122.163 79.729 101.876 79.729 101.876L77.6832 95.9086Z" fill="url(#paint0_linear_2747_1328)"/>
<path d="M121.072 95.9086C127.039 100.341 134.881 106.564 134.881 112.105C134.881 115.744 134.881 121.11 134.881 124.366C134.881 125.311 133.557 125.855 132.809 125.278C130.137 123.218 124.865 120.325 116.895 121.055C104.79 122.163 119.026 101.876 119.026 101.876L121.072 95.9086Z" fill="url(#paint1_linear_2747_1328)"/>
<g filter="url(#filter0_d_2747_1328)">
<path d="M99.3347 34.8751C88.0827 42.8879 74.6144 62.579 77.0864 87.6403C79.4732 112.702 81.6043 125.062 86.2074 128.045C90.8957 131.029 95.4988 131.711 99.3347 131.711C103.171 131.711 107.774 131.029 112.462 128.045C117.15 125.062 119.196 112.702 121.583 87.6403C123.97 62.579 110.502 42.8879 99.3347 34.8751Z" fill="url(#paint2_linear_2747_1328)"/>
</g>
<g filter="url(#filter1_d_2747_1328)">
<path d="M107.859 135.205H90.8106C89.4467 135.205 88.4238 134.097 88.4238 132.818V128.642H110.331V132.733C110.246 134.097 109.138 135.205 107.859 135.205Z" fill="url(#paint3_linear_2747_1328)"/>
</g>
<path d="M100.528 94.545H98.1413V126H100.528V94.545Z" fill="url(#paint4_linear_2747_1328)"/>
<path d="M99.3348 77.4117C103.996 77.4117 107.774 73.6335 107.774 68.9727C107.774 64.312 103.996 60.5337 99.3348 60.5337C94.6741 60.5337 90.8958 64.312 90.8958 68.9727C90.8958 73.6335 94.6741 77.4117 99.3348 77.4117Z" stroke="#9FA8BA" stroke-width="4" stroke-miterlimit="10"/>
<path d="M111.013 151.487C111.013 158.392 105.472 193 98.5676 193C91.6629 193 86.1222 158.392 86.1222 151.487C86.1222 144.582 91.6629 139.041 98.5676 139.041C105.472 139.041 111.013 144.667 111.013 151.487Z" fill="#EAEEF9"/>
<path d="M98.5676 177.059C96.0956 171.774 93.2825 157.113 93.2825 152.424C93.2825 149.526 95.6693 147.139 98.5676 147.139C101.466 147.139 103.853 149.526 103.853 152.424C103.853 157.113 101.04 171.689 98.5676 177.059Z" fill="white"/>
<circle cx="179.007" cy="27.5796" r="7.52172" fill="url(#paint5_linear_2747_1328)"/>
<circle cx="20.1153" cy="10.029" r="10.029" fill="url(#paint6_linear_2747_1328)"/>
<circle cx="10.0864" cy="133.385" r="5.01448" fill="url(#paint7_linear_2747_1328)"/>
<circle cx="166.037" cy="160.965" r="2.50724" fill="url(#paint8_linear_2747_1328)"/>
<circle cx="106.866" cy="4.51303" r="2.50724" fill="url(#paint9_linear_2747_1328)"/>
<circle cx="62.7384" cy="177.011" r="3.51014" fill="url(#paint10_linear_2747_1328)"/>
<circle cx="122.411" cy="171.495" r="1.0029" fill="url(#paint11_linear_2747_1328)"/>
<circle cx="171.051" cy="110.82" r="2.50724" fill="url(#paint12_linear_2747_1328)"/>
<circle cx="1.06031" cy="75.2172" r="1.0029" fill="url(#paint13_linear_2747_1328)"/>
<defs>
<filter id="filter0_d_2747_1328" x="54.7261" y="23.8433" width="89.1985" height="140.963" filterUnits="userSpaceOnUse" color-interpolation-filters="sRGB">
<feFlood flood-opacity="0" result="BackgroundImageFix"/>
<feColorMatrix in="SourceAlpha" type="matrix" values="0 0 0 0 0 0 0 0 0 0 0 0 0 0 0 0 0 0 127 0" result="hardAlpha"/>
<feOffset dy="11"/>
<feGaussianBlur stdDeviation="11"/>
<feColorMatrix type="matrix" values="0 0 0 0 0.397708 0 0 0 0 0.47749 0 0 0 0 0.575 0 0 0 0.27 0"/>
<feBlend mode="normal" in2="BackgroundImageFix" result="effect1_dropShadow_2747_1328"/>
<feBlend mode="normal" in="SourceGraphic" in2="effect1_dropShadow_2747_1328" result="shape"/>
</filter>
<filter id="filter1_d_2747_1328" x="66.36" y="117.61" width="66.0348" height="50.6911" filterUnits="userSpaceOnUse" color-interpolation-filters="sRGB">
<feFlood flood-opacity="0" result="BackgroundImageFix"/>
<feColorMatrix in="SourceAlpha" type="matrix" values="0 0 0 0 0 0 0 0 0 0 0 0 0 0 0 0 0 0 127 0" result="hardAlpha"/>
<feOffset dy="11"/>
<feGaussianBlur stdDeviation="11"/>
<feColorMatrix type="matrix" values="0 0 0 0 0.397708 0 0 0 0 0.47749 0 0 0 0 0.575 0 0 0 0.27 0"/>
<feBlend mode="normal" in2="BackgroundImageFix" result="effect1_dropShadow_2747_1328"/>
<feBlend mode="normal" in="SourceGraphic" in2="effect1_dropShadow_2747_1328" result="shape"/>
</filter>
<linearGradient id="paint0_linear_2747_1328" x1="75.3077" y1="96.9953" x2="75.3077" y2="114.555" gradientUnits="userSpaceOnUse">
<stop stop-color="#B0BACC"/>
<stop offset="1" stop-color="#969EAE"/>
</linearGradient>
<linearGradient id="paint1_linear_2747_1328" x1="123.451" y1="96.9953" x2="123.451" y2="114.555" gradientUnits="userSpaceOnUse">
<stop stop-color="#B0BACC"/>
<stop offset="1" stop-color="#969EAE"/>
</linearGradient>
<linearGradient id="paint2_linear_2747_1328" x1="99.3106" y1="32.6352" x2="99.3106" y2="132.755" gradientUnits="userSpaceOnUse">
<stop stop-color="#FDFEFF"/>
<stop offset="0.9964" stop-color="#ECF0F5"/>
</linearGradient>
<linearGradient id="paint3_linear_2747_1328" x1="99.3703" y1="128.49" x2="99.3703" y2="135.276" gradientUnits="userSpaceOnUse">
<stop stop-color="#FDFEFF"/>
<stop offset="0.9964" stop-color="#ECF0F5"/>
</linearGradient>
<linearGradient id="paint4_linear_2747_1328" x1="99.3349" y1="95.6377" x2="99.3349" y2="113.293" gradientUnits="userSpaceOnUse">
<stop stop-color="#B0BACC"/>
<stop offset="1" stop-color="#969EAE"/>
</linearGradient>
<linearGradient id="paint5_linear_2747_1328" x1="179.504" y1="20.116" x2="179.504" y2="35.1595" gradientUnits="userSpaceOnUse">
<stop stop-color="#7E92F8"/>
<stop offset="1" stop-color="#6972F0"/>
</linearGradient>
<linearGradient id="paint6_linear_2747_1328" x1="20.1446" y1="0" x2="20.1446" y2="20.0579" gradientUnits="userSpaceOnUse">
<stop stop-color="#7E92F8"/>
<stop offset="1" stop-color="#6972F0"/>
</linearGradient>
<linearGradient id="paint7_linear_2747_1328" x1="10.1011" y1="128.743" x2="10.1011" y2="138.771" gradientUnits="userSpaceOnUse">
<stop stop-color="#7E92F8"/>
<stop offset="1" stop-color="#6972F0"/>
</linearGradient>
<linearGradient id="paint8_linear_2747_1328" x1="166.51" y1="158.917" x2="166.51" y2="163.931" gradientUnits="userSpaceOnUse">
<stop stop-color="#7E92F8"/>
<stop offset="1" stop-color="#6972F0"/>
</linearGradient>
<linearGradient id="paint9_linear_2747_1328" x1="107.168" y1="2.0116" x2="107.168" y2="7.02608" gradientUnits="userSpaceOnUse">
<stop stop-color="#7E92F8"/>
<stop offset="1" stop-color="#6972F0"/>
</linearGradient>
<linearGradient id="paint10_linear_2747_1328" x1="62.91" y1="174.004" x2="62.91" y2="181.024" gradientUnits="userSpaceOnUse">
<stop stop-color="#7E92F8"/>
<stop offset="1" stop-color="#6972F0"/>
</linearGradient>
<linearGradient id="paint11_linear_2747_1328" x1="122.762" y1="170.986" x2="122.762" y2="172.992" gradientUnits="userSpaceOnUse">
<stop stop-color="#7E92F8"/>
<stop offset="1" stop-color="#6972F0"/>
</linearGradient>
<linearGradient id="paint12_linear_2747_1328" x1="171.539" y1="108.627" x2="171.539" y2="113.641" gradientUnits="userSpaceOnUse">
<stop stop-color="#7E92F8"/>
<stop offset="1" stop-color="#6972F0"/>
</linearGradient>
<linearGradient id="paint13_linear_2747_1328" x1="1.06048" y1="74.4293" x2="1.06048" y2="76.4351" gradientUnits="userSpaceOnUse">
<stop stop-color="#7E92F8"/>
<stop offset="1" stop-color="#6972F0"/>
</linearGradient>
</defs>
</svg>
