<svg width="44" height="37" viewBox="0 0 44 37" fill="none" xmlns="http://www.w3.org/2000/svg">
<path d="M39.3083 11.0687L36.9759 2.67495C36.7544 1.90558 36.2912 1.22912 35.6556 0.746895C35.02 0.264665 34.2463 0.00261801 33.4502 0H10.5497C9.75354 0.00266959 8.97965 0.264893 8.34402 0.747376C7.7084 1.22986 7.24527 1.90662 7.02405 2.67624L4.64108 11.0687H0V14.7583H3.66666V27.6719C3.66788 28.65 4.05458 29.5878 4.74195 30.2794C5.42932 30.9711 6.36124 31.3602 7.33333 31.3614V36.8958H11V31.3614H33V36.8958H36.6666V31.3614C37.6387 31.3602 38.5707 30.9711 39.258 30.2794C39.9454 29.5878 40.3321 28.65 40.3333 27.6719V14.7583H44V11.0687H39.3083ZM10.5497 3.68958H33.4506L36.0695 12.9135H7.93045L10.5497 3.68958ZM36.6666 23.9823V27.6719H7.33333V23.9823H11V20.2927H7.33333V16.6031H36.6666V20.2927H33V23.9823H36.6666Z" fill="black"/>
</svg>
